<?xml version="1.0" encoding="UTF-8"?><svg id="Layer_2" xmlns="http://www.w3.org/2000/svg" viewBox="0 0 1866.86 290.71"><defs><style>.cls-1{fill:#b5bd38;}.cls-2{fill:#dc6728;}.cls-3{fill:#5d5d5d;}</style></defs><g id="Final_logo"><path class="cls-3" d="M0,166.9V3.37h110.38c10.18,0,18.67,1.47,25.53,4.41,6.81,2.94,12.03,7.24,15.6,12.86,3.58,5.64,5.39,12.53,5.39,20.6,0,6.35-1.18,12.24-3.58,17.66s-5.76,9.97-10.13,13.71-9.67,6.56-15.85,8.45v1.18c6.81.96,12.86,3.2,18.12,6.68s9.34,8.2,12.28,14.04c2.94,5.89,4.41,13.12,4.41,21.7,0,10.01-2.27,18.12-6.81,24.3s-10.68,10.72-18.46,13.58c-7.78,2.86-16.36,4.29-25.74,4.29H0v.07ZM16.94,75.86h86.08c6.06,0,11.86-1.14,17.41-3.45s10.13-5.85,13.71-10.59c3.58-4.75,5.39-10.8,5.39-18.12,0-9.05-2.73-15.6-8.24-19.68-5.51-4.08-12.91-6.1-22.29-6.1H16.94v57.95h0ZM16.94,152.39h93.69c10.34,0,18.63-2.39,24.89-7.15s9.42-12.4,9.42-22.87c0-7.32-1.52-13.33-4.54-18.12-3.03-4.75-7.19-8.24-12.53-10.47s-11.23-3.33-17.75-3.33H16.94v61.98-.04h0Z"/><path class="cls-3" d="M206.46,166.9V3.37h16.94v148.77h101.56v14.76h-118.5,0Z"/><path class="cls-3" d="M343.56,166.9L427.7,3.37h20.52l84.14,163.54h-18.58l-22.87-44.57h-106.55l-22.87,44.57h-17.92ZM391.45,107.78h92.01l-28.59-56.01c-1.1-2.06-2.39-4.54-3.83-7.4-1.43-2.86-2.9-5.85-4.41-8.95s-2.94-6.14-4.29-9.17-2.56-5.55-3.7-7.61h-1.89c-1.77,3.66-3.7,7.66-5.85,12.03s-4.16,8.45-6.1,12.28c-1.89,3.83-3.41,6.77-4.54,8.83l-28.84,56.01h.04v-.02Z"/><path class="cls-3" d="M648.92,169.8c-20.81,0-38.39-3.24-52.69-9.76-14.3-6.52-25.11-16.1-32.42-28.72-7.32-12.61-10.97-28.01-10.97-46.13,0-26.99,8.24-47.9,24.81-62.57C594.22,7.94,617.6.49,647.96.49c17.96,0,33.77,2.19,47.44,6.56,13.67,4.37,24.35,11.06,32.04,20.02,7.7,8.99,11.57,20.48,11.57,34.44h-16.94c0-11.27-3.12-20.35-9.3-27.17-6.18-6.81-14.88-11.78-26.11-14.76-11.23-3.03-24.18-4.54-38.98-4.54s-28.26,2.35-39.95,7.03c-11.69,4.71-20.89,11.94-27.67,21.83-6.77,9.84-10.13,22.58-10.13,38.14v5.72c0,16.36,3.41,29.48,10.26,39.32,6.81,9.84,16.23,16.98,28.13,21.45,11.9,4.46,25.53,6.68,40.74,6.68s27.67-1.6,38.6-4.75,19.51-8.2,25.61-15.02,9.17-15.73,9.17-26.7h16.69c0,14-3.91,25.53-11.69,34.56-7.78,9.05-18.46,15.73-32.04,20.02s-29.15,6.43-46.59,6.43l.13.04h-.01Z"/><path class="cls-3" d="M787.45,166.9V3.37h16.94v98.69L923.1,3.37h23.13l-76.03,64.38,79.65,99.16h-21.45l-71.28-89.4-52.69,42.68v46.72h-16.98.01Z"/><path class="cls-3" d="M976.71,166.9V2.9h141.63c9.05,0,17.29,1.73,24.68,5.13,7.4,3.41,13.29,8.16,17.66,14.17,4.37,6.06,6.56,13.04,6.56,20.98s-1.35,14.46-4.04,19.56c-2.69,5.09-6.31,9.09-10.84,12.03s-9.51,5.13-14.88,6.56v.96c6.18,1.27,11.86,3.45,16.94,6.56,5.09,3.12,9.13,7.45,12.15,12.99s4.54,12.7,4.54,21.45-2.27,16.36-6.81,22.87-10.68,11.61-18.46,15.27c-7.78,3.66-16.44,5.47-25.99,5.47h-143.15.01ZM1035.59,66.77h56.72c3.03,0,5.59-.59,7.74-1.81,2.14-1.18,3.83-2.9,5.01-5.13,1.18-2.23,1.77-5.01,1.77-8.32s-1.43-6.47-4.29-8.95c-2.86-2.44-6.26-3.7-10.26-3.7h-56.72v27.88l.04.04h0ZM1035.59,128.76h60.55c4.29,0,7.78-1.27,10.47-3.83,2.69-2.56,4.04-6.35,4.04-11.44,0-2.39-.59-4.58-1.77-6.56s-2.9-3.53-5.13-4.66c-2.23-1.14-4.75-1.68-7.61-1.68h-60.55v28.17h-.01Z"/><path class="cls-3" d="M1300.92,169.8c-22.41,0-41.8-3.41-58.16-10.26-16.36-6.81-29.02-16.57-37.89-29.23-8.91-12.61-13.33-27.75-13.33-45.42s4.46-32.8,13.33-45.54c8.91-12.7,21.53-22.45,37.89-29.23,16.36-6.77,35.74-10.13,58.16-10.13s42.01,3.37,58.28,10.13c16.27,6.77,28.88,16.48,37.8,29.23,8.91,12.7,13.33,27.88,13.33,45.54s-4.46,32.75-13.33,45.42c-8.91,12.61-21.49,22.37-37.8,29.23-16.31,6.81-35.74,10.26-58.28,10.26ZM1300.92,129.02c7.49,0,14.21-1.01,20.27-2.98s11.19-4.83,15.48-8.58,7.53-8.16,9.76-13.25,3.33-10.64,3.33-16.69v-5.72c0-6.06-1.1-11.57-3.33-16.57-2.23-5.01-5.47-9.34-9.76-12.99-4.29-3.66-9.46-6.47-15.48-8.45-6.06-1.98-12.78-2.98-20.27-2.98s-14.21,1.01-20.27,2.98-11.19,4.79-15.48,8.45-7.57,7.99-9.76,12.99c-2.23,5.01-3.33,10.51-3.33,16.57v5.72c0,6.06,1.1,11.61,3.33,16.69,2.23,5.09,5.47,9.51,9.76,13.25s9.46,6.6,15.48,8.58c6.06,1.98,12.78,2.98,20.27,2.98Z"/><polygon class="cls-3" points="1562.39 85.12 1644.35 167.07 1574.3 167.07 1527.37 120.14 1480.44 167.07 1410.34 167.07 1492.34 85.12 1410.34 3.2 1480.44 3.2 1527.37 50.1 1574.3 3.2 1644.35 3.2 1562.39 85.12"/><polygon class="cls-1" points="1632.5 85.12 1714.46 167.07 1784.55 167.07 1702.6 85.12 1784.55 3.2 1714.46 3.2 1632.5 85.12"/><polygon class="cls-2" points="1774.1 85.12 1856.06 167.07 1866.86 167.07 1784.9 85.12 1866.86 3.2 1856.06 3.2 1774.1 85.12"/><path class="cls-3" d="M307.59,285.32l-42.83-36.02-22.34,18.82-20.48,17.2-2.05,1.84,3.96,3.56,1.9-1.7,9.44-7.94h59.21l9.56,8.05,1.78,1.59,3.96-3.56-2.09-1.84h0ZM241.12,276.09l1.08-.91,3.95-3.36,18.57-15.61,22.52,18.97,1.08.91h-47.2Z"/><path class="cls-3" d="M1022.95,271.91l.04-.62c.35-5.78-1.63-11.29-5.58-15.49-3.96-4.2-9.31-6.51-15.08-6.51h-61.35c-5.77,0-11.13,2.31-15.08,6.51-3.95,4.2-5.93,9.71-5.58,15.49.68,10.89,10.12,19.43,21.49,19.43h59.76c11.19,0,20.48-8.21,21.44-18.8h-.07ZM1014.01,279.62c-2.88,3.49-7.14,5.5-11.67,5.5h-61.35c-4.53,0-8.78-2.01-11.67-5.5-2.89-3.52-4.05-8.14-3.17-12.69,1.37-7.01,7.87-12.09,15.46-12.09h60.14c7.59,0,14.09,5.09,15.46,12.09l.14.69h-.06c.64,4.33-.54,8.66-3.29,12h0Z"/><polygon class="cls-3" points="5.55 254.83 5.55 265.01 66.94 265.01 66.94 270.56 5.55 270.56 5.55 290.71 0 290.71 0 249.29 66.94 249.29 66.94 254.83 5.55 254.83"/><polygon class="cls-3" points="767.36 249.29 767.36 254.83 736.67 254.83 736.67 290.71 731.12 290.71 731.12 254.83 700.41 254.83 700.41 249.29 767.36 249.29"/><rect class="cls-3" x="1404.77" y="249.29" width="5.56" height="41.43"/><polygon class="cls-3" points="1568.78 254.88 1568.78 265.06 1630.16 265.06 1630.16 270.61 1568.77 270.61 1568.77 285.16 1630.16 285.16 1630.16 290.71 1563.27 290.71 1563.27 249.3 1630.16 249.3 1630.16 254.88 1568.78 254.88"/><path class="cls-3" d="M1866.8,279.62h-.01c-.62,6.23-6.02,11.1-12.28,11.1h-67.49v-5.87h67.66c3.41,0,6.29-2.61,6.55-5.95.16-1.86-.41-3.64-1.59-5.01-1.17-1.34-2.82-2.11-4.54-2.11h-60.81c-5.78,0-10.67-4.47-11.15-10.19-.26-3.21.71-6.28,2.76-8.65,2.01-2.33,4.86-3.66,7.84-3.66h68.75v5.87h-68.46c-2.69,0-4.96,1.98-5.29,4.58-.22,1.55.2,3.14,1.17,4.31.96,1.19,2.36,1.87,3.83,1.87h61.95c3.22.18,6.26,1.78,8.36,4.38s3.07,5.92,2.74,9.33h0Z"/><path class="cls-3" d="M1241.82,269.94c2.74-.16,5.34-1.36,7.22-3.35,2.04-2.17,3.03-5.02,2.75-7.98-.5-5.28-5.4-9.4-11.15-9.4h-64.67v41.5h5.48v-20.78h10.09v.03h26.58l30.04,20.68,3.18-4.34-23.8-16.41,14.28.05ZM1191.54,264.55h-10.09v-9.94h59.75c1.47,0,2.86.62,3.83,1.73.96,1.09,1.39,2.54,1.17,3.98-.36,2.41-2.66,4.22-5.34,4.22h-49.32Z"/><path class="cls-3" d="M468.48,266.97c-.88,4.53.26,9.14,3.15,12.63,2.88,3.51,7.15,5.52,11.68,5.52h64.17v5.59h-63.33c-11.41,0-20.84-8.53-21.49-19.42-.35-5.79,1.63-11.29,5.58-15.49s9.31-6.51,15.07-6.51h64.17v5.55h-63.54c-7.55,0-13.98,4.99-15.39,11.91l-.07.22h0Z"/></g></svg>